<svg width="29" height="21" viewBox="0 0 29 21" fill="none" xmlns="http://www.w3.org/2000/svg">
<g clip-path="url(#clip0)">
<path d="M28.8932 10.3414C28.8989 10.0529 28.8086 9.76974 28.6346 9.53035C28.4605 9.29097 28.2111 9.10691 27.9203 9.00313L2.95906 0.0944465C2.772 0.0234233 2.57151 -0.0123203 2.36933 -0.0106887C2.16715 -0.00905718 1.96736 0.0299167 1.78166 0.103948C1.59597 0.177979 1.42812 0.285578 1.28794 0.420436C1.14776 0.555295 1.03808 0.714698 0.965327 0.889302C0.892576 1.06391 0.858218 1.2502 0.864266 1.43725C0.870315 1.6243 0.916649 1.80836 1.00055 1.97862C1.08446 2.14889 1.20424 2.30193 1.35288 2.42879C1.50152 2.55565 1.67603 2.65376 1.86617 2.71738L23.2638 10.3532L2.09241 18.2905C1.90591 18.3587 1.73586 18.4604 1.59205 18.5897C1.44824 18.7191 1.33353 18.8735 1.25453 19.0441C1.17552 19.2147 1.1338 19.3981 1.13175 19.5837C1.12971 19.7693 1.16739 19.9534 1.24262 20.1254C1.31784 20.2975 1.42913 20.454 1.57006 20.5861C1.71099 20.7181 1.87877 20.823 2.06372 20.8947C2.24868 20.9665 2.44714 21.0036 2.64767 21.0039C2.84819 21.0043 3.04681 20.9679 3.23207 20.8969L27.9441 11.6339C28.2226 11.5295 28.4615 11.351 28.6304 11.1209C28.7994 10.8908 28.8908 10.6195 28.8932 10.3414Z" fill="#FDFDFD"/>
</g>
<defs>
<clipPath id="clip0">
<rect x="0.893188" width="28" height="21" rx="5" fill="white"/>
</clipPath>
</defs>
</svg>
